# Made in Blockbench 4.3.1
mtllib chessboard.mtl

o cube
v 3 0.125 3
v 3 0.125 -3
v 3 0 3
v 3 0 -3
v -3 0.125 -3
v -3 0.125 3
v -3 0 -3
v -3 0 3
vt 0.375 1
vt 0.75 1
vt 0.75 0.9921875
vt 0.375 0.9921875
vt 0.375 0.9921875
vt 0.75 0.9921875
vt 0.75 0.984375
vt 0.375 0.984375
vt 0.375 0.984375
vt 0.75 0.984375
vt 0.75 0.9765625
vt 0.375 0.9765625
vt 0.375 0.9765625
vt 0.75 0.9765625
vt 0.75 0.96875
vt 0.375 0.96875
vt 0.375 0.625
vt 0 0.625
vt 0 1
vt 0.375 1
vt 0 0.625
vt 0.375 0.625
vt 0.375 0.24609375
vt 0 0.24609375
vn 0 0 -1
vn 1 0 0
vn 0 0 1
vn -1 0 0
vn 0 1 0
vn 0 -1 0
usemtl m_2
f 4/4/1 7/3/1 5/2/1 2/1/1
f 3/8/2 4/7/2 2/6/2 1/5/2
f 8/12/3 3/11/3 1/10/3 6/9/3
f 7/16/4 8/15/4 6/14/4 5/13/4
f 6/20/5 1/19/5 2/18/5 5/17/5
f 7/24/6 4/23/6 3/22/6 8/21/6
o grass1-2
v 2.1605570199392248 0.34375 0.3341128941708651
v 2.3373337152358618 0.34375 0.15733619887422856
v 2.1605570199392248 0.03125 0.3341128941708651
v 2.3373337152358618 0.03125 0.15733619887422856
v 2.3373337152358618 0.34375 0.15733619887422856
v 2.1605570199392248 0.34375 0.3341128941708651
v 2.3373337152358618 0.03125 0.15733619887422856
v 2.1605570199392248 0.03125 0.3341128941708651
vt 0.03125 0.01953125
vt 0.015625 0.01953125
vt 0.015625 0
vt 0.03125 0
vt 0.015625 0.01953125
vt 0.03125 0.01953125
vt 0.03125 0
vt 0.015625 0
vn 0.7071067811865475 0 0.7071067811865476
vn -0.7071067811865475 0 -0.7071067811865476
usemtl m_2
f 11/28/7 12/27/7 10/26/7 9/25/7
f 15/32/8 16/31/8 14/30/8 13/29/8
o vines1
v -0.5 0 -3
v -0.5 0 -3
v -0.5 -0.9375 -3
v -0.5 -0.9375 -3
v -3 0 -3
v -3 0 -3
v -3 -0.9375 -3
v -3 -0.9375 -3
vt 0.84375 1
vt 1 1
vt 1 0.94140625
vt 0.84375 0.94140625
vt 1 1
vt 0.84375 1
vt 0.84375 0.94140625
vt 1 0.94140625
vn 0 0 -1
vn 0 0 1
usemtl m_2
f 20/36/9 23/35/9 21/34/9 18/33/9
f 24/40/10 19/39/10 17/38/10 22/37/10
o grass1-1
v 2.337333715235861 0.34375 0.3341128941708651
v 2.1605570199392234 0.34375 0.15733619887422812
v 2.337333715235861 0.03125 0.3341128941708651
v 2.1605570199392234 0.03125 0.15733619887422812
v 2.1605570199392234 0.34375 0.15733619887422812
v 2.337333715235861 0.34375 0.3341128941708651
v 2.1605570199392234 0.03125 0.15733619887422812
v 2.337333715235861 0.03125 0.3341128941708651
vt 0 0.01953125
vt 0.015625 0.01953125
vt 0.015625 0
vt 0 0
vt 0.015625 0.01953125
vt 0 0.01953125
vt 0 0
vt 0.015625 0
vn 0.7071067811865475 0 -0.7071067811865476
vn -0.7071067811865475 0 0.7071067811865476
usemtl m_2
f 27/44/11 28/43/11 26/42/11 25/41/11
f 31/48/12 32/47/12 30/46/12 29/45/12
o grass2-1
v -1.4126662847641394 0.34375 -1.415887105829135
v -1.5894429800607763 0.34375 -1.5926638011257719
v -1.4126662847641394 0.03125 -1.415887105829135
v -1.5894429800607763 0.03125 -1.5926638011257719
v -1.5894429800607763 0.34375 -1.5926638011257719
v -1.4126662847641394 0.34375 -1.415887105829135
v -1.5894429800607763 0.03125 -1.5926638011257719
v -1.4126662847641394 0.03125 -1.415887105829135
vt 0 0.01953125
vt 0.015625 0.01953125
vt 0.015625 0
vt 0 0
vt 0.015625 0.01953125
vt 0 0.01953125
vt 0 0
vt 0.015625 0
vn 0.7071067811865475 0 -0.7071067811865476
vn -0.7071067811865475 0 0.7071067811865476
usemtl m_2
f 35/52/13 36/51/13 34/50/13 33/49/13
f 39/56/14 40/55/14 38/54/14 37/53/14
o grass2-2
v -1.5894429800607752 0.34375 -1.415887105829135
v -1.4126662847641385 0.34375 -1.5926638011257714
v -1.5894429800607752 0.03125 -1.415887105829135
v -1.4126662847641385 0.03125 -1.5926638011257714
v -1.4126662847641385 0.34375 -1.5926638011257714
v -1.5894429800607752 0.34375 -1.415887105829135
v -1.4126662847641385 0.03125 -1.5926638011257714
v -1.5894429800607752 0.03125 -1.415887105829135
vt 0.03125 0.01953125
vt 0.015625 0.01953125
vt 0.015625 0
vt 0.03125 0
vt 0.015625 0.01953125
vt 0.03125 0.01953125
vt 0.03125 0
vt 0.015625 0
vn 0.7071067811865475 0 0.7071067811865476
vn -0.7071067811865475 0 -0.7071067811865476
usemtl m_2
f 43/60/15 44/59/15 42/58/15 41/57/15
f 47/64/16 48/63/16 46/62/16 45/61/16